<?xml version="1.0" encoding="utf-8"?>
<!-- Generator: Adobe Illustrator 24.3.0, SVG Export Plug-In . SVG Version: 6.00 Build 0)  -->
<svg version="1.1" id="Calque_1" xmlns="http://www.w3.org/2000/svg" xmlns:xlink="http://www.w3.org/1999/xlink" x="0px" y="0px"
	 viewBox="0 0 42.5 42.5" style="enable-background:new 0 0 42.5 42.5;" xml:space="preserve">
<style type="text/css">
	.st0{fill:#cc0000;}
</style>
<rect class="st0" x="10.6" y="10.6" width="4.3" height="4.3"/>
<rect class="st0" x="14.9" y="14.9" width="4.3" height="4.3"/>
<rect class="st0" x="19.1" y="19.1" width="4.3" height="4.3"/>
<rect class="st0" x="23.4" y="23.4" width="4.3" height="4.3"/>
<rect class="st0" x="27.6" y="27.6" width="4.3" height="4.3"/>
<rect class="st0" x="27.6" y="10.6" transform="matrix(-1.761040e-07 1 -1 -1.761040e-07 42.5197 -17.0079)" width="4.3" height="4.3"/>
<rect class="st0" x="23.4" y="14.9" transform="matrix(-1.761044e-07 1 -1 -1.761044e-07 42.5197 -8.5039)" width="4.3" height="4.3"/>
<rect class="st0" x="14.9" y="23.4" transform="matrix(-1.761044e-07 1 -1 -1.761044e-07 42.5197 8.5039)" width="4.3" height="4.3"/>
<rect class="st0" x="10.6" y="27.6" transform="matrix(-1.761044e-07 1 -1 -1.761044e-07 42.5197 17.0079)" width="4.3" height="4.3"/>
</svg>
