<?xml version="1.0" encoding="utf-8"?>
<!-- Generator: Adobe Illustrator 26.0.1, SVG Export Plug-In . SVG Version: 6.00 Build 0)  -->
<svg version="1.1" xmlns="http://www.w3.org/2000/svg" xmlns:xlink="http://www.w3.org/1999/xlink" x="0px" y="0px"
	 viewBox="0 0 300 300" style="enable-background:new 0 0 300 300;" xml:space="preserve">
<style type="text/css">
	.st0{fill:#FFFFFF;}
</style>
<g id="Layer_2">
</g>
<g id="Layer_1">
	<path class="st0" d="M250.2,109.5c35.4-4.2,42.9-20.7,42.3-33.3c-0.3-3.9-3.6-6.9-7.5-6.6c-12.6,1.2-23.7,0.3-31.2-0.6
		c-6.9-32.4-37.5-56.1-72.6-52.5c-30.6,3-55.8,27.3-60,57.9c-3,23.1,5.7,44.1,21,58.5c6.9,6.6,5.4,18-3.6,21.6
		c-8.4,3.6-21.9,5.4-40.8,5.4c-30.9,0-49.5-10.5-60-21c-7.8-7.8-21-3.9-24,6.9c-12.9,47.4-18.9,138,123.3,138
		c149.7,0,114.6-103.8,97.8-140.1c-2.4-4.8-1.2-10.5,2.7-14.4C242.7,123.6,247.2,116.7,250.2,109.5z M212.4,81
		c-8.1,0-14.7-6.6-14.7-14.7s6.6-14.7,14.7-14.7c8.1,0,14.7,6.6,14.7,14.7S220.5,81,212.4,81z"/>
</g>
</svg>
