<?xml version="1.0" encoding="utf-8"?>
<!-- Generator: Adobe Illustrator 26.0.1, SVG Export Plug-In . SVG Version: 6.00 Build 0)  -->
<svg version="1.1" id="Calque_1" xmlns="http://www.w3.org/2000/svg" xmlns:xlink="http://www.w3.org/1999/xlink" x="0px" y="0px"
	 viewBox="0 0 25 24.8" style="enable-background:new 0 0 25 24.8;" xml:space="preserve">
<path d="M25,16.4c0-3.3,0-6.6,0-9.9c0.1-3.4-2.9-6.3-6.2-6.5c-4.2,0-8.4,0-12.6,0C4,0.1,2.1,1.2,1,3l0,0C0.4,3.9,0,5.1,0,6.2
	C0.1,8,0,9.9,0,11.8c0,2.2,0,4.5,0,6.7c0,1.6,0.6,3,1.7,4.2c1.5,1.7,3.9,2.3,6.1,2.1c3.6,0,7.2,0,10.8,0c1.3,0,2.5-0.4,3.5-1.2
	C24.7,22.1,25.2,19.2,25,16.4z M22.8,17.1c0,2.2-1.4,4.4-3.4,5.2c-2.2,0.9-4.7,0.4-7,0.5c-1.9-0.1-3.7,0.2-5.6-0.2
	c-1.8-0.5-3.4-1.9-4-3.7c-0.2-0.6-0.3-1.3-0.3-2c0-2.9,0-5.8,0-8.7C2.4,6,3.8,3.9,5.7,3c0.8-0.4,1.6-0.5,2.4-0.5c3,0,6.1,0,9.1,0
	c2.8,0,5.4,2.4,5.5,5.3C22.8,10.9,22.8,14,22.8,17.1z"/>
<path d="M19.9,6.1c-1.1-1.7-3.1-1.7-4.8-1.6c-2,0-4.1,0-6.1,0C6.7,4.2,4.4,6.2,4.5,8.6c0,2.7,0,5.4,0,8.1c0,2.2,1.7,4.1,4,4.1
	c2.8,0,5.6,0,8.4,0c2.1,0,3.9-1.8,3.9-3.8c0-2.6,0-5.3,0-7.9C20.8,7.9,20.6,6.9,19.9,6.1z M17.6,6.8c1.2,0,1.1,1.8,0,1.8
	C16.4,8.6,16.5,6.8,17.6,6.8z M15.8,17c-3.3,2.7-8.4,0.2-8.1-4.1c0.1-3.2,3.7-5.6,6.7-4.4C18.1,9.8,18.7,14.7,15.8,17z"/>
<path d="M15.4,12.5c-0.5-2.5-4.2-2.9-5.2-0.5c-0.8,1.4,0,3.3,1.5,3.8C13.8,16.6,16,14.6,15.4,12.5z"/>
<path d="M10.3,11.8L10.3,11.8L10.3,11.8z"/>
</svg>
